PathFileType	4	(X/Y/Z)	Kaydara																																																																																																																									
DataRate	CameraRate	NumFrames	NumMarkers	Units	OrigDataRate	OrigDataStartFrame	OrigNumFrames																																																																																																																					
30	30	4	41	mm	30	107	142																																																																																																																					
Frame#	Time	PAIB_LFHD			PAIB_RFHD			PAIB_LBHD			PAIB_RBHD			PAIB_LFTShould			PAIB_RFTShould			PAIB_LRRShould			PAIB_RRRShould			PAIB_T10			PAIB_STRN			PAIB_TRUN			PAIB_LSHO			PAIB_LUPA			PAIB_LELB			PAIB_LFRM			PAIB_LWRA			PAIB_LWRB			PAIB_LFIN			PAIB_RSHO			PAIB_RUPA			PAIB_RELB			PAIB_RFRM			PAIB_RWRA			PAIB_RWRB			PAIB_RFIN			PAIB_LFWT			PAIB_RFWT			PAIB_LBWT			PAIB_RBWT			PAIB_LTHI			PAIB_LKNE			PAIB_LSHN			PAIB_LANK			PAIB_LHEE			PAIB_LTOE			PAIB_RTHI			PAIB_RKNE			PAIB_RSHN			PAIB_RANK			PAIB_RHEE			PAIB_RTOE		
		X1	Y1	Z1	X2	Y2	Z2	X3	Y3	Z3	X4	Y4	Z4	X5	Y5	Z5	X6	Y6	Z6	X7	Y7	Z7	X8	Y8	Z8	X9	Y9	Z9	X10	Y10	Z10	X11	Y11	Z11	X12	Y12	Z12	X13	Y13	Z13	X14	Y14	Z14	X15	Y15	Z15	X16	Y16	Z16	X17	Y17	Z17	X18	Y18	Z18	X19	Y19	Z19	X20	Y20	Z20	X21	Y21	Z21	X22	Y22	Z22	X23	Y23	Z23	X24	Y24	Z24	X25	Y25	Z25	X26	Y26	Z26	X27	Y27	Z27	X28	Y28	Z28	X29	Y29	Z29	X30	Y30	Z30	X31	Y31	Z31	X32	Y32	Z32	X33	Y33	Z33	X34	Y34	Z34	X35	Y35	Z35	X36	Y36	Z36	X37	Y37	Z37	X38	Y38	Z38	X39	Y39	Z39	X40	Y40	Z40	X41	Y41	Z41
																																																																																																																												
107	3.543	270.75459	1549.1011	455.50144	86.15935	1542.17575	437.99103	290.74072	1545.82581	327.59766	86.50945	1547.5827	322.31907	234.70249	1287.16263	384.68781	117.51482	1290.42694	351.66039	278.81666	1398.02765	275.17542	130.08113	1401.4888	245.01648	227.01374	1277.6722	129.97153	177.52087	1214.43756	383.53855	178.53611	1111.18675	369.39888	373.33618	1323.83926	353.18638	483.9624	1129.77135	313.01725	529.66724	1062.66518	275.74226	471.27312	968.09044	348.57059	332.75295	923.86246	399.59278	394.26044	871.74202	385.81532	347.76409	869.04373	445.21904	14.10314	1328.57025	275.45059	-88.19765	1257.2451	148.04276	-156.86836	1185.3862	82.42685	-201.00363	1047.56897	64.01137	-152.72505	913.85567	115.73422	-226.63216	919.44466	72.2315	-217.76934	874.28337	133.52736	337.76051	869.99672	258.58305	104.89439	888.45627	274.23637	258.42096	933.30795	46.62469	117.36711	939.66629	59.82332	304.22686	716.68633	-9.59624	362.7388	448.81687	-20.25508	337.13924	303.3812	-149.16591	343.64979	247.24377	-347.61333	284.55631	280.46677	-378.57082	323.68778	60.64764	-334.86492	61.22837	633.48866	185.37333	59.17284	465.90809	393.76125	135.50222	284.71767	428.24429	118.03731	80.46913	349.14623	180.4043	83.7749	311.37306	119.29451	56.00834	544.91749
108	3.577	264.02514	1560.50797	527.63176	79.23109	1553.41553	511.72478	283.02446	1558.75824	399.45187	78.71328	1560.01846	396.08067	232.31915	1302.32697	453.74889	114.14626	1302.29431	422.86495	271.53587	1412.79678	342.55745	121.89507	1412.67914	315.6632	218.38537	1290.80902	198.83533	177.08057	1227.92633	453.72383	180.22022	1124.76265	439.38595	371.33064	1339.5549	417.45899	476.70219	1140.9491	371.38885	520.26447	1076.17157	329.09863	476.09676	969.4693	393.48938	346.65024	902.7076	441.07796	413.29994	861.19492	420.88543	369.75292	846.75888	481.17397	7.48046	1336.61392	348.29838	-98.42491	1247.83562	231.77387	-164.26638	1165.54962	177.01208	-200.13977	1024.82468	171.96892	-139.89928	899.11049	230.05571	-216.79676	896.6478	191.88807	-200.87854	857.45033	255.92581	329.328	880.72563	329.71039	95.99311	900.14717	340.36869	254.83648	941.35757	114.51397	114.85112	953.85406	125.82208	308.19551	703.10493	77.35016	356.91982	437.35844	98.6006	329.85405	305.15554	-43.04259	339.27208	269.29098	-246.31134	281.26263	307.00762	-273.4523	316.79941	78.73113	-261.84988	59.53611	642.16125	232.1998	56.77527	454.69067	426.38073	130.6426	274.30872	448.15613	121.02844	80.38076	349.83437	182.29631	86.04541	314.95405	121.51184	50.95803	548.87554
109	3.61	258.94001	1575.75317	596.63616	74.16862	1568.49167	581.46973	277.3167	1575.9639	468.30944	72.95645	1576.93466	465.9333	230.57011	1320.88425	520.37518	112.32004	1318.91373	492.2213	264.96929	1430.31357	407.88002	115.33379	1428.02704	384.28749	211.44968	1308.17032	265.0732	176.22257	1245.62645	521.67076	179.90814	1142.50023	507.28893	368.97835	1358.96606	480.30815	471.13491	1159.18335	423.22273	511.61827	1096.13098	375.43789	485.60387	977.84531	426.83872	369.11606	888.92258	472.2818	438.5751	859.23103	442.53212	402.80357	833.02292	504.00982	1.69377	1348.10638	418.978	-105.25305	1238.83255	317.0516	-165.46864	1146.46729	276.63046	-190.7559	1004.34769	285.72788	-116.73249	889.5639	346.84914	-196.42673	879.00978	316.38683	-172.46853	846.71677	381.86729	320.85823	896.22253	400.5241	87.07598	914.43459	404.31576	254.23641	956.50208	182.23398	114.22557	973.116	191.93203	304.52875	695.55176	167.98138	353.17883	436.11538	220.81533	322.01626	308.22399	78.875	331.38512	279.81638	-126.03148	275.46719	319.70617	-155.50776	308.1847	91.80341	-128.19519	59.02543	657.37747	275.1362	56.57654	453.73131	447.19299	130.53569	271.34974	460.13878	119.58832	81.64789	352.49119	181.46927	88.35748	316.49166	123.41899	50.19848	549.60175
110	3.643	254.76458	1591.5419	662.35435	69.72283	1584.87076	648.14636	272.44501	1591.71906	533.97141	68.12228	1593.38699	532.58183	229.70015	1338.86826	585.86895	110.64974	1335.43243	560.751	258.36256	1448.10928	471.17893	108.72794	1441.48865	452.02557	204.50615	1323.85223	330.97919	176.18067	1262.9351	589.14165	179.49711	1159.6846	575.2018	366.69262	1379.32236	540.63049	465.43354	1180.46921	472.35916	505.12161	1121.16653	417.6836	497.85061	995.62386	454.44839	397.53689	886.22292	494.69322	467.41772	869.93599	455.74001	441.56376	832.01683	516.10222	1.44329	1357.97806	493.8826	-103.42236	1237.02866	408.48553	-161.68699	1138.79723	375.397	-173.42918	996.02859	399.08131	-84.82666	894.17664	465.19104	-164.67234	873.54362	441.31535	-134.02257	850.19287	507.99046	313.54769	913.24738	468.24394	78.85952	928.37311	467.60513	254.2503	975.48225	251.44978	113.31384	992.0224	257.41276	299.26477	695.82657	257.50099	348.86883	443.19412	350.50152	315.48239	310.97239	214.30162	321.23596	274.49795	10.73255	265.45914	311.37947	-22.73455	298.66686	94.34257	41.64682	55.94189	673.50632	314.33004	56.79141	453.17677	466.92802	131.4852	270.02729	466.59039	118.32651	82.90467	353.25672	180.06323	90.61837	317.34718	123.73832	50.1898	548.92029
